<svg width="24" height="18" viewBox="0 0 24 18" fill="none" xmlns="http://www.w3.org/2000/svg">
<path d="M5.99902 0H18.0007V18H5.99902V0Z" fill="white"/>
<path d="M0 0H5.99917V18H0V0ZM18.0008 0H24V18H18.0041L18.0008 0ZM7.79793 8.69766L7.32754 8.86641L9.49731 10.8879C9.66294 11.4047 9.44099 11.5559 9.29855 11.8301L11.6505 11.5137L11.5942 14.0273L12.0845 14.0133L11.9752 11.5172L14.3337 11.816C14.188 11.4891 14.0588 11.3168 14.1913 10.7965L16.3578 8.88047L15.9801 8.73281C15.6687 8.47969 16.1126 7.51289 16.1789 6.90117C16.1789 6.90117 14.9168 7.36172 14.834 7.11914L14.5093 6.46172L13.3598 7.80469C13.234 7.83633 13.181 7.78359 13.1511 7.67109L13.6812 4.86562L12.8398 5.36836C12.7702 5.40352 12.7006 5.37539 12.6542 5.2875L11.8427 3.56484L11.0079 5.3543C10.9449 5.41758 10.882 5.42461 10.829 5.38242L10.0273 4.9043L10.511 7.68516C10.4712 7.79766 10.3785 7.82578 10.2725 7.76602L9.16936 6.44062C9.02691 6.68672 8.93085 7.08398 8.73872 7.17539C8.5499 7.25977 7.91056 7.00664 7.48323 6.9082C7.62899 7.46719 8.08613 8.39531 7.79793 8.70117V8.69766Z" fill="#FF0000"/>
</svg>
