<svg width="24" height="18" viewBox="0 0 24 18" fill="none" xmlns="http://www.w3.org/2000/svg">
<path fill-rule="evenodd" clip-rule="evenodd" d="M24 18H0V0H24V18Z" fill="#BA0000"/>
<path fill-rule="evenodd" clip-rule="evenodd" d="M11.7477 9.2193C11.7477 9.2193 9.92881 8.43675 10.1897 6.40636C10.4399 5.42993 10.8876 4.76371 11.6948 4.40063C12.0755 4.28431 12.4633 4.23143 12.8581 4.19971C12.7523 4.29841 12.6677 4.39711 12.6219 4.51696C12.5373 4.74256 12.6008 4.95406 12.7171 5.16908C12.8616 5.41583 12.9497 5.66963 12.9779 6.00098C13.0044 6.22678 12.9708 6.45556 12.8804 6.66417C12.79 6.87278 12.6461 7.0538 12.4633 7.18891C12.2306 7.36868 11.9557 7.43213 11.7301 7.63658C11.5538 7.80578 11.4481 7.9785 11.4128 8.2746C11.4058 8.84213 11.5574 8.9232 11.7477 9.2193Z" fill="white"/>
<path fill-rule="evenodd" clip-rule="evenodd" d="M11.3984 6.28304V6.27246V6.28304Z" fill="#BA0000"/>
<path d="M11.3984 6.28304V6.27246" stroke="black" stroke-width="2.1"/>
<path d="M11.5148 9.00803C10.8098 8.3841 10.8697 6.80843 11.409 6.2832" stroke="#BA0000" stroke-width="0.5"/>
<path fill-rule="evenodd" clip-rule="evenodd" d="M11.8426 5.93043L11.9589 6.1243L11.7474 6.03618L11.5817 6.21243L11.6099 5.9833L11.3984 5.89517L11.6276 5.8423L11.6558 5.6167L11.7721 5.81057L12.0047 5.7577" fill="#BA0000"/>
<path fill-rule="evenodd" clip-rule="evenodd" d="M11.9023 9.08544C11.9023 9.08544 12.1138 7.11497 14.1337 6.76952C15.1418 6.72722 15.9103 6.95634 16.4954 7.62609C16.7175 7.95391 16.8796 8.30994 17.0242 8.67654C16.9008 8.60604 16.7845 8.55316 16.6505 8.54611C16.4143 8.52849 16.2275 8.65186 16.0583 8.82459C15.8607 9.04332 15.6144 9.21239 15.3392 9.31809C15.1313 9.41 14.9029 9.44537 14.6769 9.42061C14.451 9.39585 14.2356 9.31184 14.0526 9.17709C13.8129 9.00436 13.6719 8.76114 13.411 8.60604C13.199 8.48002 12.9478 8.4373 12.706 8.48619C12.1597 8.64834 12.1315 8.81754 11.9023 9.08544Z" fill="white"/>
<path fill-rule="evenodd" clip-rule="evenodd" d="M14.6064 7.89404H14.617H14.6064Z" fill="#BA0000"/>
<path d="M14.6064 7.89404H14.617" stroke="black" stroke-width="2.1"/>
<path d="M12.0332 8.80358C12.428 7.94347 13.9508 7.54162 14.61 7.90117" stroke="#BA0000" stroke-width="0.5"/>
<path fill-rule="evenodd" clip-rule="evenodd" d="M15.0753 8.21455L14.9237 8.38023L14.9449 8.1511L14.7334 8.04535L14.9555 8.0101L14.9766 7.77393L15.0965 7.98543L15.3221 7.94313L15.1705 8.1088L15.2868 8.3203" fill="#BA0000"/>
<path fill-rule="evenodd" clip-rule="evenodd" d="M12.0361 9.22656C12.0361 9.22656 13.9749 8.80356 14.9407 10.6119C15.3038 11.5531 15.3285 12.3532 14.8808 13.1182C14.6411 13.4354 14.3521 13.6998 14.0524 13.9571C14.0806 13.8161 14.0912 13.6892 14.056 13.5623C13.9996 13.3297 13.8233 13.1922 13.6048 13.0864C13.3336 12.9679 13.0944 12.7866 12.9068 12.5577C12.7547 12.3897 12.6496 12.1846 12.6019 11.9631C12.5543 11.7416 12.5658 11.5114 12.6354 11.2957C12.72 11.0137 12.9068 10.8022 12.9703 10.5061C13.023 10.2657 12.984 10.0143 12.861 9.80114C12.5332 9.33584 12.364 9.36051 12.0361 9.22656Z" fill="white"/>
<path fill-rule="evenodd" clip-rule="evenodd" d="M14.0244 11.4155L14.0315 11.4226L14.0244 11.4155Z" fill="#BA0000"/>
<path d="M14.0244 11.4155L14.0315 11.4226" stroke="black" stroke-width="2.1"/>
<path d="M12.3506 9.26172C13.2882 9.36394 14.1519 10.6788 14.0214 11.4225" stroke="#BA0000" stroke-width="0.5"/>
<path fill-rule="evenodd" clip-rule="evenodd" d="M13.8691 11.9618L13.6611 11.8701L13.8903 11.8172L13.9185 11.5811L14.0277 11.782L14.2569 11.7291L14.0982 11.9054L14.204 12.1063L13.9995 12.0146L13.8409 12.1944" fill="#BA0000"/>
<path fill-rule="evenodd" clip-rule="evenodd" d="M11.9938 9.42735C11.9938 9.42735 12.942 11.1687 11.4827 12.5999C10.679 13.2132 9.91755 13.4635 9.05745 13.2485C8.68733 13.1075 8.35245 12.9065 8.01758 12.688C8.15858 12.6774 8.289 12.6527 8.4018 12.5822C8.60625 12.4624 8.68733 12.2544 8.72963 12.0182C8.76632 11.7237 8.87265 11.4422 9.03983 11.1969C9.15811 11.0034 9.32531 10.8445 9.52458 10.7362C9.72385 10.6279 9.94816 10.574 10.1749 10.58C10.471 10.5836 10.7248 10.7069 11.0279 10.6858C11.2712 10.6541 11.4615 10.5871 11.6765 10.3756C12.029 9.93495 11.9585 9.77633 11.9938 9.42383V9.42735Z" fill="white"/>
<path fill-rule="evenodd" clip-rule="evenodd" d="M10.4498 11.9512L10.4463 11.9582L10.4498 11.9512Z" fill="#BA0000"/>
<path d="M10.4498 11.9512L10.4463 11.9582" stroke="black" stroke-width="2.1"/>
<path d="M12.0437 9.73389C12.2164 10.6645 11.1942 11.8665 10.4434 11.9441" stroke="#BA0000" stroke-width="0.5"/>
<path fill-rule="evenodd" clip-rule="evenodd" d="M9.88245 11.9546L9.91417 11.729L10.0305 11.9299L10.2631 11.8947L10.101 12.0568L10.2173 12.2578L10.0023 12.1555L9.84015 12.3177L9.86835 12.0921L9.65332 11.9899" fill="#BA0000"/>
<path fill-rule="evenodd" clip-rule="evenodd" d="M11.7792 9.38832C11.7792 9.38832 10.4538 10.8618 8.61372 9.96641C7.76772 9.41299 7.28127 8.77497 7.2002 7.89372C7.21077 7.49539 7.2848 7.11469 7.37997 6.73047C7.4399 6.85737 7.50687 6.97017 7.6091 7.05477C7.78887 7.20634 8.01447 7.21339 8.25417 7.17462C8.54188 7.11162 8.84053 7.11887 9.12485 7.19577C9.34746 7.24263 9.55373 7.34752 9.72273 7.49981C9.89173 7.6521 10.0175 7.84637 10.0872 8.06292C10.1823 8.34139 10.1506 8.62339 10.274 8.90187C10.3797 9.12042 10.5066 9.27552 10.7781 9.40946C11.3139 9.59629 11.4372 9.47644 11.7792 9.39184V9.38832Z" fill="white"/>
<path fill-rule="evenodd" clip-rule="evenodd" d="M8.88498 8.77501L8.87793 8.77148L8.88498 8.77501Z" fill="#BA0000"/>
<path d="M8.88498 8.77501L8.87793 8.77148" stroke="black" stroke-width="2.1"/>
<path d="M11.5042 9.54015C10.6864 10.009 9.21297 9.44497 8.88867 8.76465" stroke="#BA0000" stroke-width="0.5"/>
<path fill-rule="evenodd" clip-rule="evenodd" d="M8.69451 8.23923L8.91658 8.1934L8.76501 8.36965L8.87428 8.57763L8.66983 8.47893L8.51826 8.65518L8.54293 8.41548L8.33496 8.31678L8.55703 8.27095L8.58171 8.03125" fill="#BA0000"/>
</svg>
