<svg width="24" height="18" viewBox="0 0 24 18" fill="none" xmlns="http://www.w3.org/2000/svg">
<path d="M0 0H24V6H0V0Z" fill="#FF9933"/>
<path d="M0 6H24V12H0V6Z" fill="white"/>
<path d="M0 12H24V18H0V12Z" fill="#128807"/>
<path d="M11.9996 11.4001C13.3251 11.4001 14.3996 10.3256 14.3996 9.0001C14.3996 7.67461 13.3251 6.6001 11.9996 6.6001C10.6741 6.6001 9.59961 7.67461 9.59961 9.0001C9.59961 10.3256 10.6741 11.4001 11.9996 11.4001Z" fill="#000088"/>
<path d="M11.9994 11.0999C13.1592 11.0999 14.0994 10.1597 14.0994 8.9999C14.0994 7.8401 13.1592 6.8999 11.9994 6.8999C10.8396 6.8999 9.89941 7.8401 9.89941 8.9999C9.89941 10.1597 10.8396 11.0999 11.9994 11.0999Z" fill="white"/>
<path d="M11.9991 9.42008C12.2311 9.42008 12.4191 9.23204 12.4191 9.00008C12.4191 8.76812 12.2311 8.58008 11.9991 8.58008C11.7671 8.58008 11.5791 8.76812 11.5791 9.00008C11.5791 9.23204 11.7671 9.42008 11.9991 9.42008Z" fill="#000088"/>
<path d="M14.0672 9.38206C14.1263 9.38985 14.1805 9.34822 14.1883 9.28908C14.1961 9.22994 14.1545 9.17569 14.0954 9.16791C14.0362 9.16012 13.982 9.20175 13.9742 9.26089C13.9664 9.32002 14.008 9.37428 14.0672 9.38206Z" fill="#000088"/>
<path d="M11.9997 11.0997L12.0717 9.83975L11.9997 9.23975L11.9277 9.83975L11.9997 11.0997Z" fill="#000088"/>
</svg>
