<svg width="24" height="18" viewBox="0 0 24 18" fill="none" xmlns="http://www.w3.org/2000/svg">
<rect width="24" height="18" fill="white"/>
<path fill-rule="evenodd" clip-rule="evenodd" d="M0 0H24V1.38516H0V0ZM0 2.77031H24V4.15547H0V2.77031ZM0 5.53711H24V6.92578H0V5.53711ZM0 8.30742H24V9.69258H0V8.30742ZM0 11.0777H24V12.4629H0V11.0777ZM0 13.8445H24V15.2297H0V13.8445ZM0 16.6148H24V18H0V16.6148Z" fill="#BD3D44"/>
<path fill-rule="evenodd" clip-rule="evenodd" d="M0 0H13.2916V9.7122H0V0Z" fill="#192F5D"/>
<path fill-rule="evenodd" clip-rule="evenodd" d="M1.10713 0.416016L1.2301 0.799994H1.61952L1.30525 1.03602L1.42481 1.42352L1.10713 1.18397L0.792854 1.42L0.912414 1.03602L0.594727 0.799994H0.990982L1.10713 0.416016ZM3.3241 0.416016L3.44366 0.799994H3.8365L3.51881 1.03602L3.63837 1.42352L3.3241 1.18397L3.00642 1.42L3.12598 1.03602L2.8117 0.799994H3.20113L3.3241 0.416016ZM5.53767 0.416016L5.66064 0.799994H6.04665L5.73238 1.03602L5.85194 1.42352L5.53425 1.18397L5.21998 1.42L5.33954 1.03602L5.02185 0.799994H5.41469L5.53767 0.416016ZM7.75464 0.416016L7.8742 0.799994H8.26704L7.94935 1.03602L8.07233 1.42352L7.75464 1.18397L7.43696 1.42L7.55993 1.03602L7.24224 0.799994H7.63167L7.75464 0.416016ZM9.96821 0.416016L10.0912 0.799994H10.4806L10.1663 1.03602L10.2859 1.42352L9.96821 1.18397L9.65393 1.42L9.77349 1.03602L9.45922 0.799994H9.84865L9.96821 0.416016ZM12.1852 0.416016L12.3047 0.799994H12.6976L12.3799 1.03602L12.5029 1.42352L12.1852 1.18397L11.8675 1.42L11.9905 1.03602L11.6728 0.799994H12.0656L12.1852 0.416016ZM2.21732 1.38829L2.33688 1.77227H2.72972L2.41203 2.00829L2.52818 2.39227L2.22074 2.15625L1.90305 2.39227L2.01578 2.00829L1.70834 1.77227H2.09776L2.21732 1.38829ZM4.43088 1.38829L4.55386 1.77227H4.94328L4.6256 2.00829L4.74857 2.39227L4.43088 2.15625L4.1132 2.39227L4.23617 2.00829L3.91849 1.77227H4.31132L4.43088 1.38829ZM6.64786 1.38829L6.76742 1.77227H7.16026L6.84257 2.00829L6.96213 2.39227L6.64786 2.15625L6.33018 2.39227L6.44974 2.00829L6.13546 1.77227H6.52489L6.64786 1.38829ZM8.86142 1.38829L8.9844 1.77227H9.37382L9.05614 2.00829L9.17911 2.39227L8.86142 2.15625L8.54715 2.39227L8.66671 2.00829L8.34903 1.77227H8.74528L8.86142 1.38829ZM11.0784 1.38829L11.198 1.77227H11.5908L11.2731 2.00829L11.3927 2.39227L11.0784 2.15625L10.7607 2.39227L10.8803 2.00829L10.566 1.77227H10.9554L11.0784 1.38829ZM1.10713 2.35705L1.2301 2.74807H1.61952L1.30525 2.98409L1.42481 3.36807L1.10713 3.12853L0.792854 3.36807L0.912414 2.98057L0.594727 2.74455H0.990982L1.10713 2.35705ZM3.3241 2.35705L3.44366 2.74455H3.8365L3.51881 2.98057L3.63837 3.36455L3.3241 3.125L3.00642 3.36455L3.12598 2.97705L2.8117 2.74102H3.20113L3.3241 2.35705ZM5.53767 2.35705L5.66064 2.74455H6.04665L5.73238 2.98057L5.85194 3.36455L5.53425 3.125L5.21998 3.36455L5.33954 2.97705L5.02185 2.74102H5.41469L5.53767 2.35705ZM7.75464 2.35705L7.8742 2.74455H8.26704L7.94935 2.98057L8.07233 3.36455L7.75464 3.125L7.43696 3.36455L7.55993 2.97705L7.24224 2.74102H7.63167L7.75464 2.35705ZM9.96821 2.35705L10.0912 2.74455H10.4806L10.1663 2.98057L10.2859 3.36455L9.96821 3.125L9.65393 3.36455L9.77349 2.97705L9.45922 2.74102H9.84865L9.96821 2.35705ZM12.1852 2.35705L12.3047 2.74455H12.6976L12.3799 2.98057L12.5029 3.36455L12.1852 3.125L11.8675 3.36455L11.9905 2.97705L11.6728 2.74102H12.0656L12.1852 2.35705ZM2.21732 3.32932L2.33688 3.7133H2.72972L2.41203 3.94932L2.53159 4.33683L2.21732 4.09728L1.89963 4.3333L2.01919 3.94932L1.70492 3.7133H2.09435L2.21732 3.32932ZM4.43088 3.32932L4.55386 3.7133H4.94328L4.6256 3.94932L4.74857 4.33683L4.43088 4.09728L4.1132 4.3333L4.23617 3.94932L3.91849 3.7133H4.31132L4.43088 3.32932ZM6.64786 3.32932L6.76742 3.7133H7.16026L6.84257 3.94932L6.96213 4.33683L6.64786 4.09728L6.33018 4.3333L6.44974 3.94932L6.13546 3.7133H6.52489L6.64786 3.32932ZM8.86142 3.32932L8.9844 3.7133H9.37382L9.05955 3.94932L9.17911 4.33683L8.86142 4.09728L8.54715 4.3333L8.66671 3.94932L8.34903 3.7133H8.74528L8.86142 3.32932ZM11.0784 3.32932L11.198 3.7133H11.5908L11.2731 3.94932L11.3927 4.33683L11.0784 4.09728L10.7607 4.3333L10.8803 3.94932L10.566 3.7133H10.9554L11.0784 3.32932ZM1.10713 4.3016L1.2301 4.68558H1.61952L1.30525 4.9216L1.42481 5.3091L1.10713 5.06956L0.792854 5.30558L0.912414 4.9216L0.594727 4.68558H0.990982L1.10713 4.3016ZM3.3241 4.3016L3.44366 4.68558H3.8365L3.51881 4.9216L3.63837 5.30558L3.3241 5.06956L3.00642 5.30558L3.12598 4.9216L2.8117 4.68558H3.20113L3.3241 4.3016ZM5.53767 4.3016L5.66064 4.68558H6.04665L5.73238 4.9216L5.85194 5.3091L5.53425 5.06956L5.21998 5.30558L5.33954 4.9216L5.02185 4.68558H5.41469L5.53767 4.3016ZM7.75464 4.3016L7.8742 4.68558H8.26704L7.94935 4.9216L8.07233 5.3091L7.75464 5.06956L7.43696 5.30558L7.55993 4.9216L7.24224 4.68558H7.63167L7.75464 4.3016ZM9.96821 4.3016L10.0912 4.68558H10.4806L10.1663 4.9216L10.2859 5.3091L9.96821 5.06956L9.65393 5.30558L9.77349 4.9216L9.45922 4.68558H9.84865L9.96821 4.3016ZM12.1852 4.3016L12.3047 4.68558H12.6976L12.3799 4.9216L12.5029 5.3091L12.1852 5.06956L11.8675 5.30558L11.9905 4.9216L11.6728 4.68558H12.0656L12.1852 4.3016ZM2.21732 5.27387L2.33688 5.65785H2.72972L2.41203 5.89388L2.53159 6.27786L2.21732 6.03831L1.89963 6.27786L2.01919 5.89035L1.70492 5.65433H2.09435L2.21732 5.27387ZM4.43088 5.27387L4.55386 5.65785H4.94328L4.6256 5.89388L4.74857 6.27786L4.43088 6.03831L4.1132 6.27786L4.23617 5.89035L3.91849 5.65433H4.31132L4.43088 5.27387ZM6.64786 5.27387L6.76742 5.65785H7.16026L6.84257 5.89388L6.96213 6.27786L6.64786 6.03831L6.33018 6.27786L6.44974 5.89035L6.13546 5.65433H6.52489L6.64786 5.27387ZM8.86142 5.27387L8.9844 5.65785H9.37382L9.05955 5.89388L9.17911 6.27786L8.86142 6.03831L8.54715 6.27786L8.66671 5.89035L8.34903 5.65433H8.74528L8.86142 5.27387ZM11.0784 5.27387L11.198 5.65785H11.5908L11.2731 5.89388L11.3927 6.27786L11.0784 6.03831L10.7607 6.27786L10.8803 5.89035L10.566 5.65433H10.9554L11.0784 5.27387ZM1.10713 6.24263L1.2301 6.63013H1.61952L1.30525 6.86615L1.42481 7.24661L1.10713 7.01059L0.792854 7.24661L0.912414 6.86263L0.594727 6.62661H0.990982L1.10713 6.24263ZM3.3241 6.24263L3.44366 6.63013H3.8365L3.51881 6.86615L3.64179 7.24661L3.3241 7.01059L3.00642 7.24661L3.12939 6.86263L2.8117 6.62661H3.20113L3.3241 6.24263ZM5.53767 6.24263L5.66064 6.63013H6.04665L5.73238 6.86615L5.85194 7.24661L5.53425 7.01059L5.21998 7.24661L5.33954 6.86263L5.02185 6.62661H5.41469L5.53767 6.24263ZM7.75464 6.24263L7.8742 6.63013H8.26704L7.94935 6.86615L8.07233 7.24661L7.75464 7.01059L7.43696 7.24661L7.55993 6.86263L7.24224 6.62661H7.63167L7.75464 6.24263ZM9.96821 6.24263L10.0912 6.63013H10.4806L10.1663 6.86615L10.2859 7.24661L9.96821 7.01059L9.65393 7.24661L9.77349 6.86263L9.45922 6.62661H9.84865L9.96821 6.24263ZM12.1852 6.24263L12.3047 6.63013H12.6976L12.3799 6.86615L12.5029 7.24661L12.1852 7.01059L11.8675 7.24661L11.9905 6.86263L11.6728 6.62661H12.0656L12.1852 6.24263ZM2.21732 7.21491L2.33688 7.59888H2.72972L2.41203 7.83491L2.53159 8.22241L2.21732 7.98286L1.89963 8.21889L2.01919 7.83491L1.70492 7.59888H2.09435L2.21732 7.21491ZM4.43088 7.21491L4.55386 7.59888H4.94328L4.6256 7.83491L4.74857 8.22241L4.43088 7.98286L4.1132 8.21889L4.23617 7.83491L3.91849 7.59888H4.31132L4.43088 7.21491ZM6.64786 7.21491L6.76742 7.59888H7.16026L6.84257 7.83491L6.96213 8.22241L6.64786 7.98286L6.33018 8.21889L6.44974 7.83491L6.13546 7.59888H6.52489L6.64786 7.21491ZM8.86142 7.21491L8.9844 7.59888H9.37382L9.05955 7.83491L9.17911 8.22241L8.86142 7.98286L8.54715 8.21889L8.66671 7.83491L8.34903 7.59888H8.74528L8.86142 7.21491ZM11.0784 7.21491L11.198 7.59888H11.5908L11.2731 7.83491L11.3927 8.22241L11.0784 7.98286L10.7607 8.21889L10.8803 7.83491L10.566 7.59888H10.9554L11.0784 7.21491ZM1.10713 8.18718L1.2301 8.57116H1.61952L1.30525 8.80718L1.42481 9.19116L1.10713 8.95514L0.792854 9.19116L0.912414 8.80366L0.594727 8.56764H0.990982L1.10713 8.18718ZM3.3241 8.18718L3.44366 8.57116H3.8365L3.51881 8.80718L3.64179 9.19116L3.3241 8.95514L3.00642 9.19116L3.12939 8.80366L2.8117 8.56764H3.20113L3.3241 8.18718ZM5.53767 8.18718L5.66064 8.57116H6.04665L5.73921 8.80718L5.85877 9.19116L5.54108 8.95514L5.22681 9.19116L5.34637 8.80366L5.02868 8.56764H5.42152L5.53767 8.18718ZM7.75464 8.18718L7.8742 8.57116H8.26704L7.94935 8.80718L8.07233 9.19116L7.75464 8.95514L7.43696 9.19116L7.55993 8.80366L7.24224 8.56764H7.63167L7.75464 8.18718ZM9.96821 8.18718L10.0912 8.57116H10.4806L10.1663 8.80718L10.2859 9.19116L9.96821 8.95514L9.65393 9.19116L9.77349 8.80366L9.45922 8.56764H9.84865L9.96821 8.18718ZM12.1852 8.18718L12.3047 8.57116H12.6976L12.3799 8.80718L12.5029 9.19116L12.1852 8.95514L11.8675 9.19116L11.9905 8.80366L11.6728 8.56764H12.0656L12.1852 8.18718Z" fill="white"/>
</svg>
