<svg width="16" height="16" viewBox="0 0 16 16" fill="none" xmlns="http://www.w3.org/2000/svg">
<path d="M14.5744 5.66895L13.1504 7.09295C13.4284 7.43995 13.6564 7.75695 13.8194 7.99995C13.0594 9.12995 10.9694 11.8199 8.25836 11.9849L6.44336 13.7999C6.93936 13.9239 7.45736 13.9999 8.00036 13.9999C12.7074 13.9999 15.7444 8.71594 15.8714 8.49194C16.0424 8.18794 16.0434 7.81595 15.8724 7.51195C15.8254 7.42695 15.3724 6.63095 14.5744 5.66895Z" fill="#5B5863"/>
<path d="M0.293375 15.707C0.488375 15.902 0.744375 16 1.00038 16C1.25638 16 1.51238 15.902 1.70738 15.707L15.7074 1.70701C16.0984 1.31601 16.0984 0.684006 15.7074 0.293006C15.3164 -0.0979941 14.6844 -0.0979941 14.2934 0.293006L11.5484 3.03801C10.5154 2.43101 9.33138 2.00001 8.00037 2.00001C3.24537 2.00001 0.251375 7.28901 0.126375 7.51401C-0.0426249 7.81701 -0.0416249 8.18601 0.128375 8.48901C0.198375 8.61401 1.17238 10.291 2.82138 11.765L0.292375 14.294C-0.0976249 14.684 -0.0976249 15.316 0.293375 15.707ZM2.18138 7.99901C2.95837 6.83501 5.14637 4.00001 8.00037 4.00001C8.74237 4.00001 9.43738 4.20101 10.0784 4.50801L8.51237 6.07401C8.34838 6.02901 8.17838 6.00001 8.00037 6.00001C6.89537 6.00001 6.00038 6.89501 6.00038 8.00001C6.00038 8.17801 6.02938 8.34801 6.07438 8.51201L4.24038 10.346C3.28538 9.51 2.55938 8.56201 2.18138 7.99901Z" fill="#5B5863"/>
</svg>
