<svg width="43" height="44" viewBox="0 0 43 44" fill="none" xmlns="http://www.w3.org/2000/svg">
<path d="M5.823 30.4321C5.448 29.8911 4.552 29.8911 4.177 30.4321C3.479 31.4411 0 36.6011 0 39.0001C0 41.7571 2.243 44.0001 5 44.0001C7.757 44.0001 10 41.7571 10 39.0001C10 36.6011 6.521 31.4411 5.823 30.4321Z" fill="#FD3E72"/>
<path d="M41.3561 22.388C41.3561 22.388 40.8281 21.665 39.9681 20.49C38.0721 22.055 35.6471 23 33.0001 23H27.0001C26.4481 23 26.0001 22.552 26.0001 22C26.0001 21.448 26.4481 21 27.0001 21H33.0001C37.9631 21 42.0001 16.962 42.0001 12C42.0001 7.038 37.9631 3 33.0001 3H27.1481C26.3111 1.866 25.7831 1.155 25.7401 1.113C25.0011 0.376 23.9801 0 22.7031 0C19.2111 0 14.0181 2.935 9.4761 7.477C6.5551 10.398 4.2571 13.614 3.0071 16.533C1.6331 19.739 1.6701 22.299 3.1121 23.741C3.1401 23.769 24.3861 39.357 24.3861 39.357C24.9311 39.868 25.6401 40.098 26.4601 40.098C29.1851 40.098 33.1321 37.56 36.3451 34.348C40.5261 30.167 43.5641 24.743 41.3561 22.388ZM33.0001 5C36.8591 5 40.0001 8.14 40.0001 12C40.0001 14.096 39.0691 15.975 37.6051 17.259C34.8451 13.487 31.1501 8.442 28.6201 5H33.0001ZM24.0081 7.533C22.8551 10.224 20.7071 13.218 17.9621 15.963C13.8411 20.085 9.0941 22.854 6.1501 22.854C5.4221 22.854 4.8771 22.676 4.5271 22.327C3.7261 21.526 3.8451 19.655 4.8451 17.321C5.9981 14.631 8.1451 11.637 10.8901 8.892C15.0131 4.77 19.7601 2 22.7031 2C23.4311 2 23.9761 2.178 24.3261 2.527C25.1271 3.328 25.0081 5.199 24.0081 7.533Z" fill="#FD3E72"/>
</svg>
