<svg width="16" height="16" viewBox="0 0 16 16" fill="none" xmlns="http://www.w3.org/2000/svg">
<path d="M8.00013 14C12.7071 14 15.7441 8.716 15.8711 8.492C16.0421 8.188 16.0431 7.816 15.8721 7.512C15.7461 7.287 12.7311 2 8.00013 2C3.24513 2 0.251127 7.289 0.126127 7.514C-0.0428725 7.817 -0.0418725 8.186 0.128127 8.489C0.254127 8.713 3.26913 14 8.00013 14ZM8.00013 4C10.8391 4 13.0361 6.835 13.8181 8C13.0341 9.166 10.8371 12 8.00013 12C5.15913 12 2.96213 9.162 2.18113 7.999C2.95813 6.835 5.14613 4 8.00013 4Z" fill="#5B5863"/>
<path d="M8 10C9.10457 10 10 9.10457 10 8C10 6.89543 9.10457 6 8 6C6.89543 6 6 6.89543 6 8C6 9.10457 6.89543 10 8 10Z" fill="#5B5863"/>
</svg>
