<svg width="16" height="16" viewBox="0 0 16 16" fill="none" xmlns="http://www.w3.org/2000/svg">
<path d="M7.56081 2.83998C7.64835 3.00086 7.81685 3.101 8 3.101C8.18315 3.101 8.35165 3.00086 8.43919 2.83998C9.03542 1.74425 10.1769 1 11.5 1C13.4329 1 15 2.56714 15 4.5C15 5.36471 14.5866 6.45763 13.895 7.65639C13.2118 8.84065 12.294 10.0661 11.3659 11.1799C10.4394 12.2917 9.51145 13.2816 8.81446 13.9941C8.48095 14.335 8.20091 14.6118 8 14.8074C7.79908 14.6118 7.51905 14.335 7.18554 13.9941C6.48855 13.2816 5.56064 12.2917 4.63411 11.1799C3.70597 10.0661 2.7882 8.84065 2.10497 7.65639C1.41337 6.45763 1 5.36471 1 4.5C1 2.56714 2.56714 1 4.5 1C5.82308 1 6.96458 1.74425 7.56081 2.83998Z" stroke="#C7C5C4" stroke-miterlimit="10" stroke-linecap="round" stroke-linejoin="round"/>
</svg>
