<svg width="18" height="16" viewBox="0 0 18 16" fill="none" xmlns="http://www.w3.org/2000/svg">
<path d="M16.1441 5.44026L11.8271 4.81212L9.90008 0.90029C9.80851 0.742721 9.67719 0.611953 9.51925 0.521058C9.36132 0.430163 9.18229 0.382324 9.00008 0.382324C8.81786 0.382324 8.63884 0.430163 8.4809 0.521058C8.32297 0.611953 8.19165 0.742721 8.10008 0.90029L6.17308 4.81312L1.85608 5.44026C1.67121 5.46678 1.49747 5.54455 1.35452 5.66475C1.21157 5.78496 1.10514 5.94281 1.04727 6.12041C0.989398 6.29801 0.982408 6.48827 1.02709 6.66964C1.07177 6.85101 1.16634 7.01625 1.30008 7.14662L4.42308 10.1923L3.68608 14.4932C3.65457 14.6771 3.67514 14.8662 3.74546 15.0391C3.81578 15.2119 3.93305 15.3617 4.08401 15.4714C4.23497 15.581 4.41359 15.6463 4.59969 15.6597C4.78579 15.6732 4.97193 15.6343 5.13708 15.5474L9.00008 13.516L12.8611 15.5454C13.0262 15.6323 13.2124 15.6712 13.3985 15.6577C13.5846 15.6443 13.7632 15.579 13.9142 15.4694C14.0651 15.3597 14.1824 15.2099 14.2527 15.0371C14.323 14.8642 14.3436 14.6751 14.3121 14.4912L13.5751 10.1903L16.7001 7.14662C16.8335 7.01634 16.9278 6.85134 16.9724 6.67026C17.017 6.48918 17.0102 6.29924 16.9525 6.12187C16.8949 5.9445 16.7889 5.78678 16.6464 5.66652C16.5039 5.54625 16.3306 5.46823 16.1461 5.44126L16.1441 5.44026Z" fill="#AFADB2"/>
</svg>
