<svg width="17" height="16" viewBox="0 0 17 16" fill="none" xmlns="http://www.w3.org/2000/svg">
<path d="M8 10C10.2091 10 12 8.20914 12 6C12 3.79086 10.2091 2 8 2C5.79086 2 4 3.79086 4 6C4 8.20914 5.79086 10 8 10Z" fill="#AFADB2"/>
<path d="M14.0998 0.700195L12.3998 1.8002C13.0998 2.8002 14.3998 4.4002 13.8998 7.1002C13.2998 10.4002 10.1998 12.5002 6.8998 11.9002C4.1998 11.4002 3.0998 9.5002 2.4998 8.5002L0.799805 9.6002C1.4998 10.6002 3.0998 13.4002 6.9998 13.9002V16.0002H8.9998V13.9002C12.3998 13.5002 15.1998 10.9002 15.8998 7.4002C16.4998 4.0002 14.7998 1.8002 14.0998 0.700195Z" fill="#AFADB2"/>
</svg>
