<svg width="20" height="20" viewBox="0 0 20 20" fill="none" xmlns="http://www.w3.org/2000/svg">
<path d="M0 2.85714C0 1.51027 0 0.836838 0.418419 0.418419C0.836838 0 1.51027 0 2.85714 0C4.20401 0 4.87745 0 5.29587 0.418419C5.71429 0.836838 5.71429 1.51027 5.71429 2.85714C5.71429 4.20401 5.71429 4.87745 5.29587 5.29587C4.87745 5.71429 4.20401 5.71429 2.85714 5.71429C1.51027 5.71429 0.836838 5.71429 0.418419 5.29587C0 4.87745 0 4.20401 0 2.85714Z" fill="#5B5863"/>
<path d="M14.2857 2.85714C14.2857 1.51027 14.2857 0.836838 14.7041 0.418419C15.1226 0 15.796 0 17.1429 0C18.4897 0 19.1632 0 19.5816 0.418419C20 0.836838 20 1.51027 20 2.85714C20 4.20401 20 4.87745 19.5816 5.29587C19.1632 5.71429 18.4897 5.71429 17.1429 5.71429C15.796 5.71429 15.1226 5.71429 14.7041 5.29587C14.2857 4.87745 14.2857 4.20401 14.2857 2.85714Z" fill="#5B5863"/>
<path d="M0 17.1429C0 15.796 0 15.1226 0.418419 14.7041C0.836838 14.2857 1.51027 14.2857 2.85714 14.2857C4.20401 14.2857 4.87745 14.2857 5.29587 14.7041C5.71429 15.1226 5.71429 15.796 5.71429 17.1429C5.71429 18.4897 5.71429 19.1632 5.29587 19.5816C4.87745 20 4.20401 20 2.85714 20C1.51027 20 0.836838 20 0.418419 19.5816C0 19.1632 0 18.4897 0 17.1429Z" fill="#5B5863"/>
<path d="M14.2857 17.1429C14.2857 15.796 14.2857 15.1226 14.7041 14.7041C15.1226 14.2857 15.796 14.2857 17.1429 14.2857C18.4897 14.2857 19.1632 14.2857 19.5816 14.7041C20 15.1226 20 15.796 20 17.1429C20 18.4897 20 19.1632 19.5816 19.5816C19.1632 20 18.4897 20 17.1429 20C15.796 20 15.1226 20 14.7041 19.5816C14.2857 19.1632 14.2857 18.4897 14.2857 17.1429Z" fill="#5B5863"/>
</svg>
