<svg width="16" height="16" viewBox="0 0 16 16" fill="none" xmlns="http://www.w3.org/2000/svg">
<path d="M12 10C11.5044 10 11.0165 10.1231 10.5801 10.3582C10.1438 10.5933 9.77265 10.9331 9.5 11.347C9.03283 11.119 8.51984 11.0005 8 11.0005C7.48016 11.0005 6.96717 11.119 6.5 11.347C6.11551 10.7591 5.53732 10.3244 4.86576 10.1182C4.19421 9.9121 3.47169 9.94759 2.82357 10.2185C2.17546 10.4895 1.64266 10.9788 1.31764 11.6016C0.992614 12.2243 0.895883 12.9412 1.04423 13.6279C1.19258 14.3145 1.57664 14.9275 2.12976 15.3606C2.68289 15.7936 3.37017 16.0193 4.07234 15.9985C4.7745 15.9778 5.44724 15.7118 5.9738 15.2468C6.50036 14.7819 6.84751 14.1472 6.955 13.453C7.23763 13.1856 7.61193 13.0366 8.001 13.0366C8.39007 13.0366 8.76437 13.1856 9.047 13.453C9.13464 14.0193 9.38292 14.5486 9.76237 14.9781C10.1418 15.4075 10.6365 15.7191 11.1878 15.8758C11.739 16.0325 12.3236 16.0278 12.8722 15.8622C13.4209 15.6966 13.9105 15.3771 14.2829 14.9416C14.6554 14.506 14.8951 13.9728 14.9736 13.4051C15.052 12.8374 14.966 12.2592 14.7256 11.7389C14.4853 11.2187 14.1007 10.7783 13.6176 10.4701C13.1345 10.1618 12.5731 9.9987 12 10ZM4 14C3.80222 14 3.60888 13.9414 3.44443 13.8315C3.27998 13.7216 3.15181 13.5654 3.07612 13.3827C3.00043 13.2 2.98063 12.9989 3.01922 12.8049C3.0578 12.6109 3.15304 12.4327 3.29289 12.2929C3.43275 12.153 3.61093 12.0578 3.80491 12.0192C3.99889 11.9806 4.19996 12.0004 4.38268 12.0761C4.56541 12.1518 4.72159 12.28 4.83147 12.4444C4.94135 12.6089 5 12.8022 5 13C5 13.2652 4.89464 13.5196 4.70711 13.7071C4.51957 13.8946 4.26522 14 4 14ZM12 14C11.8022 14 11.6089 13.9414 11.4444 13.8315C11.28 13.7216 11.1518 13.5654 11.0761 13.3827C11.0004 13.2 10.9806 12.9989 11.0192 12.8049C11.0578 12.6109 11.153 12.4327 11.2929 12.2929C11.4327 12.153 11.6109 12.0578 11.8049 12.0192C11.9989 11.9806 12.2 12.0004 12.3827 12.0761C12.5654 12.1518 12.7216 12.28 12.8315 12.4444C12.9414 12.6089 13 12.8022 13 13C13 13.2652 12.8946 13.5196 12.7071 13.7071C12.5196 13.8946 12.2652 14 12 14Z" fill="#626064"/>
<path d="M12.8 4L12 0H4L3.2 4H12.8Z" fill="#626064"/>
<path d="M13 5H3L0 8H16L13 5Z" fill="#626064"/>
</svg>
