<svg width="24" height="22" viewBox="0 0 24 22" fill="none" xmlns="http://www.w3.org/2000/svg">
<path d="M0 12H24L19 8H5L0 12Z" fill="#FD3E72"/>
<path d="M17.5002 13C16.7008 13.0027 15.9168 13.219 15.2291 13.6266C14.5415 14.0341 13.9753 14.6181 13.5892 15.318C12.565 14.932 11.4354 14.932 10.4112 15.318C9.87225 14.3757 9.00851 13.662 7.9815 13.3104C6.95449 12.9588 5.83457 12.9934 4.83122 13.4077C3.82786 13.822 3.0098 14.5876 2.53005 15.5614C2.05029 16.5352 1.94171 17.6503 2.22461 18.6983C2.5075 19.7464 3.1625 20.6554 4.06709 21.2555C4.97167 21.8556 6.06389 22.1055 7.13943 21.9587C8.21497 21.8118 9.20017 21.2781 9.91075 20.4575C10.6213 19.6369 11.0086 18.5855 11.0002 17.5C11.0002 17.411 10.9792 17.328 10.9742 17.24C11.2962 17.0927 11.6461 17.0165 12.0002 17.0165C12.3543 17.0165 12.7042 17.0927 13.0262 17.24C13.0262 17.328 13.0002 17.411 13.0002 17.5C13.0002 18.39 13.2641 19.26 13.7586 20.0001C14.253 20.7401 14.9558 21.3169 15.7781 21.6575C16.6004 21.9981 17.5052 22.0872 18.3781 21.9135C19.251 21.7399 20.0528 21.3113 20.6822 20.682C21.3115 20.0526 21.7401 19.2508 21.9137 18.3779C22.0874 17.505 21.9982 16.6002 21.6576 15.7779C21.317 14.9557 20.7403 14.2529 20.0002 13.7584C19.2602 13.2639 18.3902 13 17.5002 13ZM6.50018 20C6.00573 20 5.52238 19.8534 5.11126 19.5787C4.70013 19.304 4.3797 18.9135 4.19048 18.4567C4.00126 17.9999 3.95176 17.4972 4.04822 17.0123C4.14468 16.5273 4.38278 16.0819 4.73242 15.7322C5.08205 15.3826 5.5275 15.1445 6.01246 15.048C6.49741 14.9516 7.00008 15.0011 7.45689 15.1903C7.91371 15.3795 8.30415 15.7 8.57886 16.1111C8.85356 16.5222 9.00018 17.0055 9.00018 17.5C9.00018 18.163 8.73679 18.7989 8.26795 19.2678C7.79911 19.7366 7.16322 20 6.50018 20ZM17.5002 20C17.0057 20 16.5224 19.8534 16.1113 19.5787C15.7001 19.304 15.3797 18.9135 15.1905 18.4567C15.0013 17.9999 14.9518 17.4972 15.0482 17.0123C15.1447 16.5273 15.3828 16.0819 15.7324 15.7322C16.082 15.3826 16.5275 15.1445 17.0125 15.048C17.4974 14.9516 18.0001 15.0011 18.4569 15.1903C18.9137 15.3795 19.3042 15.7 19.5789 16.1111C19.8536 16.5222 20.0002 17.0055 20.0002 17.5C20.0002 18.163 19.7368 18.7989 19.268 19.2678C18.7991 19.7366 18.1632 20 17.5002 20Z" fill="#FD3E72"/>
<path d="M18.5 6L17.189 0.757C17.1348 0.540753 17.01 0.348809 16.8342 0.211655C16.6585 0.0745022 16.4419 5.86043e-06 16.219 0H7.781C7.55807 5.86043e-06 7.34154 0.0745022 7.16579 0.211655C6.99005 0.348809 6.86517 0.540753 6.811 0.757L5.5 6H18.5Z" fill="#FD3E72"/>
</svg>
