<svg width="46" height="44" viewBox="0 0 46 44" fill="none" xmlns="http://www.w3.org/2000/svg">
<path d="M45.8855 42.536L23.8855 0.535998C23.5405 -0.123002 22.4585 -0.123002 22.1145 0.535998L0.114481 42.536C-0.0485194 42.846 -0.0365194 43.218 0.144481 43.517C0.325481 43.816 0.649481 44 0.999481 44H44.9995C45.3495 44 45.6735 43.817 45.8545 43.518C46.0355 43.219 46.0475 42.846 45.8855 42.536ZM25.2855 15L24.1425 31.571H21.8565L20.7135 15H25.2855ZM22.9995 40C21.3425 40 19.9995 38.657 19.9995 37C19.9995 35.343 21.3425 34 22.9995 34C24.6565 34 25.9995 35.343 25.9995 37C25.9995 38.657 24.6565 40 22.9995 40Z" fill="#FD3E72"/>
</svg>
