<svg width="188" height="60" viewBox="0 0 188 60" fill="none" xmlns="http://www.w3.org/2000/svg">
<path d="M87.0373 33.3552H66.4547C65.5191 33.3552 64.8103 34.1764 64.9804 35.0825C65.0088 35.2807 65.0371 35.4789 65.0655 35.6771C65.2073 36.4699 65.4341 37.2344 65.7459 37.9989C66.2279 39.1599 66.9934 40.1792 68.0423 41.0853C69.063 41.9914 70.5088 42.4161 72.3516 42.4161C74.1944 42.4161 75.612 41.9631 76.661 41.0853C77.4831 40.3774 78.1069 39.5846 78.5888 38.7351C78.844 38.2821 79.3543 37.9989 79.8646 37.9989H85.6198C86.6688 37.9989 87.3776 39.0466 87.0373 40.0093C86.7822 40.7455 86.4703 41.4534 86.1018 42.0763C85.4497 43.2373 84.7409 44.2566 83.9471 45.1061C83.1533 45.9555 82.3311 46.6634 81.4239 47.2297C80.5167 47.796 79.6661 48.2491 78.8156 48.6172C76.746 49.41 74.5914 49.8347 72.2949 49.8347C69.2898 49.7781 66.6248 49.1552 64.3 47.9659C63.3078 47.4279 62.3438 46.7484 61.3799 45.9272C60.416 45.1061 59.5655 44.0584 58.8283 42.8125C58.0912 41.5667 57.4958 40.066 57.0422 38.3104C56.5886 36.5549 56.3618 34.5445 56.3618 32.1943C56.3618 29.8725 56.5886 27.8338 57.0422 26.0782C57.4958 24.3227 58.0912 22.822 58.8283 21.5478C59.5655 20.2736 60.416 19.2259 61.3799 18.3765C62.3438 17.527 63.3078 16.8474 64.3 16.3095C66.5964 15.0636 69.2331 14.4123 72.2099 14.2991C72.2666 14.2991 72.3233 14.2991 72.38 14.2991C74.8182 14.4123 77.0862 14.922 79.2125 15.8281C80.1198 16.2245 81.027 16.7625 81.9342 17.4138C82.8414 18.065 83.692 18.8578 84.4858 19.8205C85.2796 20.7833 85.96 21.9159 86.5554 23.2467C87.1507 24.5775 87.6044 26.1065 87.8595 27.8338C87.9446 28.5133 88.0296 29.1929 88.0863 29.9008C88.143 30.6087 88.1997 31.3732 88.1997 32.1943C88.2281 32.1377 88.3982 33.3552 87.0373 33.3552ZM77.228 27.7771C78.3053 27.7771 79.0708 26.6445 78.5888 25.6818C78.5888 25.6818 78.5888 25.6535 78.5605 25.6535C78.2203 24.9456 77.7666 24.2944 77.1713 23.6997C76.5759 23.1334 75.8955 22.6521 75.1017 22.3123C74.3078 21.9725 73.3439 21.8026 72.2949 21.8026C71.2176 21.8026 70.282 21.9725 69.4882 22.3123C68.6944 22.6521 67.9856 23.1051 67.4186 23.6997C66.8232 24.2944 66.3696 24.9173 66.0011 25.6535V25.6818C65.5191 26.6728 66.2846 27.8055 67.3619 27.8055H77.228V27.7771Z" fill="#A12B52"/>
<path d="M52.2505 0C47.7143 0 44.0571 3.65267 44.0571 8.18311V31.883C44.0571 32.874 44.0004 33.8651 43.887 34.9127C43.7736 35.9321 43.4901 36.8665 43.0365 37.7159C42.5829 38.5654 41.9024 39.2733 40.9952 39.8396C40.088 40.4059 38.7839 40.689 37.1395 40.689C35.4952 40.689 34.191 40.4059 33.2838 39.8396C32.3766 39.2733 31.6962 38.5654 31.2425 37.7159C30.7889 36.8665 30.5054 35.9321 30.392 34.9127C30.2786 33.8934 30.2219 32.874 30.2219 31.883V7.44691C25.6858 7.44691 22.0285 11.0996 22.0285 15.63V31.8547C22.0285 32.8457 21.9718 33.8367 21.8584 34.8844C21.745 35.9038 21.4615 36.8382 21.0079 37.6876C20.5543 38.5371 19.8739 39.245 18.9667 39.8113C18.0594 40.3776 16.7553 40.6607 15.111 40.6607C13.4666 40.6607 12.1625 40.3776 11.2553 39.8113C10.348 39.245 9.66761 38.5371 9.214 37.6876C8.76039 36.8382 8.47688 35.9038 8.36348 34.8844C8.25007 33.8651 8.19337 32.8457 8.19337 31.8547V14.8938C3.65725 14.8938 0 18.5748 0 23.0769V31.8547C0 34.1765 0.226806 36.2152 0.680418 37.9708C1.13403 39.7263 1.70105 41.227 2.38146 42.5012C3.09023 43.7754 3.88406 44.8231 4.79128 45.6725C5.6985 46.522 6.63408 47.2015 7.56966 47.7395C9.75267 48.9854 12.2759 49.665 15.0826 49.7499C17.946 49.665 20.4693 48.9854 22.6806 47.7395C23.6162 47.2015 24.5518 46.522 25.4306 45.6725C25.6574 45.446 25.8843 45.2195 26.1111 44.9646C26.3379 45.2195 26.5647 45.446 26.7915 45.6725C27.6987 46.522 28.6343 47.2015 29.5699 47.7395C31.7529 48.9854 34.2761 49.665 37.0828 49.7499C39.9462 49.665 42.4695 48.9854 44.6808 47.7395C45.6164 47.2015 46.552 46.522 47.4308 45.6725C48.3381 44.8231 49.1319 43.7754 49.8407 42.5012C50.5494 41.227 51.1164 39.7263 51.5417 37.9708C51.967 36.2152 52.1654 34.2048 52.1654 31.8547L52.2505 0Z" fill="#A12B52"/>
<path d="M113.035 47.6829C112.808 48.3341 112.212 48.7872 111.504 48.7872H107.194H102.885C102.205 48.7872 101.581 48.3341 101.354 47.6829L91.3462 17.0174C91.006 15.9698 91.7715 14.9221 92.8771 14.9221H97.7251C98.4055 14.9221 99.0292 15.3752 99.2561 16.0264L105.663 35.5922C106.145 37.0646 108.215 37.0646 108.697 35.5922L112.382 24.3228L118.563 5.40818C119.924 1.30247 124.346 -0.962755 128.457 0.396378L113.035 47.6829Z" fill="#EF4273"/>
<path d="M152.556 21.3212C151.818 20.047 150.968 18.9994 150.004 18.1499C149.04 17.3004 148.076 16.6209 147.084 16.0829C144.759 14.837 142.122 14.1575 139.202 14.0725C136.396 14.0725 134.014 14.4972 132.058 15.3184C130.102 16.1395 128.486 17.3288 127.21 18.8578C125.934 20.3868 125.027 22.2556 124.432 24.4642C123.865 26.6728 123.553 29.1645 123.553 31.9678V58.0178C123.553 59.1221 124.432 59.9999 125.537 59.9999H129.506C130.612 59.9999 131.491 59.1221 131.491 58.0178V44.9078C131.916 45.5025 132.398 46.0121 132.908 46.4652C134.071 47.4562 135.205 48.1641 136.311 48.5888C137.558 49.0702 138.834 49.3533 140.166 49.4383C140.28 49.4383 140.365 49.4383 140.478 49.4383C143.171 49.3816 145.581 48.7587 147.679 47.5695C148.615 47.0315 149.522 46.3519 150.401 45.5308C151.28 44.7096 152.045 43.662 152.754 42.4161C153.434 41.1702 154.001 39.6695 154.427 37.9423C154.852 36.215 155.05 34.1763 155.05 31.8545C155.05 29.5326 154.824 27.5223 154.342 25.7667C153.888 24.0678 153.293 22.5671 152.556 21.3212ZM146.574 35.1108C146.403 36.2717 146.035 37.3477 145.496 38.3387C144.958 39.3297 144.192 40.1792 143.2 40.8304C142.208 41.51 140.875 41.8215 139.231 41.8215C137.586 41.8215 136.254 41.4817 135.262 40.8304C134.269 40.1509 133.476 39.3297 132.908 38.3387C132.341 37.3477 131.973 36.2717 131.803 35.1108C131.633 33.9498 131.548 32.8738 131.548 31.9111C131.548 30.7219 131.633 29.5326 131.774 28.3434C131.945 27.1542 132.256 26.1065 132.767 25.1438C133.277 24.1811 134.043 23.4165 135.063 22.8502C136.084 22.2839 137.473 21.9725 139.202 21.9725C140.847 21.9725 142.179 22.3123 143.171 22.9635C144.164 23.6431 144.958 24.4642 145.468 25.4552C146.007 26.4463 146.347 27.5506 146.545 28.6832C146.715 29.8441 146.8 30.9201 146.8 31.8828C146.829 32.8738 146.744 33.9498 146.574 35.1108Z" fill="#EF4273"/>
<path d="M186.18 24.3793C185.5 22.3406 184.621 20.67 183.544 19.3392C182.466 18.0083 181.304 16.989 180.056 16.2811C178.809 15.5732 177.618 15.0352 176.513 14.7238C175.407 14.384 174.415 14.2141 173.592 14.1575C172.77 14.1008 172.288 14.1008 172.147 14.1008C171.976 14.1008 171.466 14.1291 170.672 14.1575C169.878 14.2141 168.915 14.384 167.809 14.7238C166.703 15.0635 165.512 15.5732 164.265 16.2811C163.018 16.989 161.855 18.0083 160.778 19.3392C159.701 20.67 158.822 22.3689 158.141 24.3793C157.461 26.418 157.092 28.9097 157.092 31.8828V47.0032C157.092 47.9942 157.886 48.787 158.878 48.787H163.443C164.435 48.787 165.229 47.9942 165.229 47.0032V31.9111C165.229 30.9201 165.314 29.9291 165.484 28.9097C165.654 27.8904 165.994 26.956 166.476 26.1065C166.958 25.257 167.667 24.5492 168.546 24.0112C169.425 23.4449 170.616 23.19 172.09 23.19C173.564 23.19 174.755 23.4732 175.634 24.0112C176.513 24.5775 177.221 25.257 177.703 26.1065C178.185 26.956 178.525 27.8904 178.696 28.9097C178.866 29.9291 178.951 30.9484 178.951 31.9111V47.0032C178.951 47.9942 179.745 48.787 180.737 48.787H185.415C186.407 48.787 187.201 47.9942 187.201 47.0032V31.9111C187.201 28.9097 186.861 26.418 186.18 24.3793Z" fill="#EF4273"/>
</svg>
